M48
; DRILL file {KiCad (5.1.5)-3} date 2020-05-25 11:19:52 AM
; FORMAT={-:-/ absolute / inch / decimal}
; #@! TF.CreationDate,2020-05-25T11:19:52-05:00
; #@! TF.GenerationSoftware,Kicad,Pcbnew,(5.1.5)-3
; #@! TF.FileFunction,Plated,1,2,PTH
FMAT,2
INCH
T1C0.0157
T2C0.0197
T3C0.0236
T4C0.0256
T5C0.0315
T6C0.0350
T7C0.0362
T8C0.0394
T9C0.0433
T10C0.0618
T11C0.0906
T12C0.1260
%
G90
G05
T1
X3.575Y-2.3931
X3.575Y-2.7868
X3.575Y-3.1805
X3.575Y-3.5742
X3.575Y-3.9679
X3.575Y-4.3616
X3.575Y-4.7553
X3.65Y-2.275
X3.65Y-4.935
X3.75Y-2.7
X3.75Y-3.725
X3.75Y-3.9219
X3.75Y-4.1187
X3.75Y-4.3156
X3.75Y-4.5124
X3.87Y-3.36
X4.005Y-2.86
X4.0306Y-4.42
X4.0437Y-2.275
X4.0437Y-4.935
X4.065Y-3.07
X4.066Y-2.848
X4.125Y-2.595
X4.13Y-3.73
X4.13Y-4.2
X4.13Y-4.65
X4.14Y-3.04
X4.17Y-3.07
X4.188Y-2.599
X4.22Y-3.03
X4.2274Y-4.42
X4.28Y-2.5776
X4.283Y-2.718
X4.326Y-2.5776
X4.345Y-2.77
X4.346Y-3.982
X4.357Y-2.985
X4.386Y-3.258
X4.395Y-2.71
X4.4374Y-2.275
X4.4374Y-4.935
X4.458Y-3.578
X4.51Y-2.94
X4.51Y-3.52
X4.5106Y-2.71
X4.58Y-4.77
X4.582Y-3.578
X4.61Y-3.22
X4.61Y-3.396
X4.626Y-2.618
X4.6306Y-4.19
X4.638Y-3.518
X4.662Y-4.576
X4.7074Y-2.71
X4.7374Y-2.42
X4.78Y-4.77
X4.814Y-4.576
X4.8274Y-4.19
X4.83Y-3.028
X4.83Y-3.0834
X4.8311Y-2.275
X4.8311Y-4.935
X4.84Y-3.79
X5.002Y-4.648
X5.05Y-2.6
X5.05Y-2.7969
X5.05Y-2.9937
X5.05Y-3.1906
X5.114Y-3.964
X5.116Y-3.916
X5.127Y-3.837
X5.149Y-4.0475
X5.1506Y-4.2
X5.2248Y-4.935
X5.2469Y-2.6
X5.2469Y-2.7969
X5.2469Y-2.9937
X5.2469Y-3.1906
X5.335Y-3.79
X5.336Y-4.076
X5.42Y-4.1026
X5.42Y-3.79
X5.42Y-3.88
X5.4437Y-2.6
X5.4437Y-2.7969
X5.4437Y-2.9937
X5.458Y-3.327
X5.462Y-4.0475
X5.464Y-3.69
X5.509Y-4.135
X5.566Y-3.433
X5.5817Y-3.9604
X5.588Y-3.916
X5.588Y-4.284
X5.6185Y-4.935
X5.631Y-4.438
X5.64Y-3.39
X5.6406Y-2.7969
X5.6406Y-3.1906
X5.667Y-3.914
X5.724Y-4.465
X5.729Y-3.816
X5.73Y-3.644
X5.77Y-4.268
X5.8Y-3.59
X5.826Y-4.624
X5.8274Y-3.0
X5.8274Y-3.1969
X5.8274Y-3.3937
X5.8575Y-4.4375
X5.879Y-4.648
X5.958Y-4.116
X6.005Y-3.8
X6.0106Y-2.87
X6.0122Y-2.275
X6.0122Y-4.935
X6.113Y-4.423
X6.132Y-2.798
X6.2074Y-2.87
X6.2206Y-3.13
X6.225Y-4.178
X6.25Y-4.43
X6.25Y-4.605
X6.306Y-4.328
X6.31Y-3.68
X6.312Y-3.954
X6.4059Y-4.935
X6.4174Y-3.13
X6.5106Y-3.3
X6.5106Y-3.83
X6.5174Y-3.48
X6.5174Y-3.6769
X6.5506Y-2.38
X6.5506Y-2.5769
X6.7074Y-3.3
X6.7074Y-3.83
X6.7474Y-2.38
X6.7474Y-2.5769
X6.775Y-3.49
X6.7996Y-4.935
X6.85Y-2.87
X7.01Y-4.24
X7.09Y-2.67
X7.09Y-3.07
X7.1374Y-3.63
X7.1374Y-3.8269
X7.138Y-4.206
X7.138Y-4.278
X7.1933Y-2.275
X7.1933Y-4.935
X7.293Y-3.9
X7.295Y-2.4124
X7.295Y-2.8061
X7.295Y-3.181
X7.295Y-3.5935
X7.295Y-3.9872
X7.295Y-4.3809
X7.295Y-4.7746
T2
X3.903Y-2.877
X3.984Y-3.026
X3.984Y-3.282
X4.216Y-3.282
X5.295Y-3.55
X5.659Y-3.029
X5.705Y-4.01
X5.956Y-4.282
X6.124Y-4.084
X6.306Y-3.284
X6.307Y-3.016
X6.415Y-3.302
X3.6555Y-4.75
X3.6832Y-4.6832
X3.6832Y-4.8168
X3.75Y-4.6555
X3.75Y-4.8445
X3.8168Y-4.6832
X3.8168Y-4.8168
X3.8445Y-4.75
X7.0055Y-4.75
X7.0332Y-4.6832
X7.0332Y-4.8168
X7.1Y-4.6555
X7.1Y-4.8445
X7.1668Y-4.6832
X7.1668Y-4.8168
X7.1945Y-4.75
X3.6555Y-2.45
X3.6832Y-2.3832
X3.6832Y-2.5168
X3.75Y-2.3555
X3.75Y-2.5445
X3.8168Y-2.3832
X3.8168Y-2.5168
X3.8445Y-2.45
X7.0055Y-2.45
X7.0332Y-2.3832
X7.0332Y-2.5168
X7.1Y-2.3555
X7.1Y-2.5445
X7.1668Y-2.3832
X7.1668Y-2.5168
X7.1945Y-2.45
T5
X4.95Y-2.555
X4.95Y-2.6337
X4.95Y-2.7125
X4.95Y-2.7912
X4.95Y-2.87
X4.95Y-2.9487
X4.95Y-3.0274
X4.95Y-3.1062
X4.95Y-3.1849
X4.95Y-3.2637
X4.95Y-3.3424
X4.95Y-3.4211
X4.95Y-3.4999
X4.95Y-3.5786
X4.95Y-3.6574
X4.95Y-3.7361
X5.9106Y-2.555
X5.9106Y-2.6337
X5.9106Y-2.7125
X5.9106Y-2.7912
X5.9106Y-2.87
X5.9106Y-2.9487
X5.9106Y-3.0274
X5.9106Y-3.1062
X5.9106Y-3.1849
X5.9106Y-3.2637
X5.9106Y-3.3424
X5.9106Y-3.4211
X5.9106Y-3.4999
X5.9106Y-3.5786
X5.9106Y-3.6574
X5.9106Y-3.7361
T6
X6.8299Y-3.4402
X6.8299Y-3.5205
X6.8299Y-3.6008
X6.8299Y-3.6811
X6.9Y-3.4
X6.9Y-3.4803
X6.9Y-3.5606
X6.9Y-3.6409
T7
X6.5044Y-2.785
X6.6028Y-2.785
X6.6816Y-2.785
X6.78Y-2.785
T8
X4.392Y-3.354
X4.534Y-3.927
X4.69Y-3.735
X5.147Y-3.691
X5.295Y-3.393
X6.125Y-3.42
X6.225Y-3.42
X6.125Y-3.57
X6.225Y-3.57
T9
X7.085Y-4.01
X7.085Y-4.11
X7.085Y-4.375
X7.085Y-4.475
X4.58Y-4.685
X4.68Y-4.685
X4.78Y-4.685
X4.88Y-4.685
X5.16Y-4.684
X5.26Y-4.684
X5.36Y-4.684
X5.525Y-4.685
X5.625Y-4.685
X5.725Y-4.685
T10
X6.865Y-3.2201
X6.865Y-3.8602
T11
X6.3835Y-2.6783
X6.9009Y-2.6783
T12
X3.75Y-4.75
X7.1Y-4.75
X3.75Y-2.45
X7.1Y-2.45
T3
G00X4.1616Y-2.3698
M15
G01X4.1616Y-2.3422
M16
G05
G00X4.4904Y-2.3698
M15
G01X4.4904Y-2.3422
M16
G05
T4
G00X4.2384Y-2.478
M15
G01X4.2384Y-2.4702
M16
G05
G00X4.4136Y-2.478
M15
G01X4.4136Y-2.4702
M16
G05
T0
M30
